HIERARCHY
ROOT Hips
{
	OFFSET 0.00000 0.00000 0.00000
	CHANNELS 6 Xposition Yposition Zposition Zrotation Yrotation Xrotation 
	JOINT LHipJoint
	{
		OFFSET 0 0 0
		CHANNELS 3 Zrotation Yrotation Xrotation
		JOINT LeftUpLeg
		{
			OFFSET 1.62964 -1.40469 0.78906
			CHANNELS 3 Zrotation Yrotation Xrotation
			JOINT LeftLeg
			{
				OFFSET 2.29640 -6.30932 0.00000
				CHANNELS 3 Zrotation Yrotation Xrotation
				JOINT LeftFoot
				{
					OFFSET 2.29451 -6.30412 0.00000
					CHANNELS 3 Zrotation Yrotation Xrotation
					JOINT LeftToeBase
					{
						OFFSET 0.03611 -0.09921 1.56387
						CHANNELS 3 Zrotation Yrotation Xrotation
						End Site
						{
							OFFSET 0.00000 -0.00000 0.80291
						}
					}
				}
			}
		}
	}
	JOINT RHipJoint
	{
		OFFSET 0 0 0
		CHANNELS 3 Zrotation Yrotation Xrotation
		JOINT RightUpLeg
		{
			OFFSET -1.73712 -1.40469 0.78906
			CHANNELS 3 Zrotation Yrotation Xrotation
			JOINT RightLeg
			{
				OFFSET -2.28137 -6.26801 0.00000
				CHANNELS 3 Zrotation Yrotation Xrotation
				JOINT RightFoot
				{
					OFFSET -2.28681 -6.28298 0.00000
					CHANNELS 3 Zrotation Yrotation Xrotation
					JOINT RightToeBase
					{
						OFFSET -0.15927 -0.43759 1.61103
						CHANNELS 3 Zrotation Yrotation Xrotation
						End Site
						{
							OFFSET -0.00000 -0.00000 0.84630
						}
					}
				}
			}
		}
	}
	JOINT LowerBack
	{
		OFFSET 0 0 0
		CHANNELS 3 Zrotation Yrotation Xrotation
		JOINT Spine
		{
			OFFSET -0.04227 2.04338 -0.00225
			CHANNELS 3 Zrotation Yrotation Xrotation
			JOINT Spine1
			{
				OFFSET -0.02148 2.04482 -0.04273
				CHANNELS 3 Zrotation Yrotation Xrotation
				JOINT Neck
				{
					OFFSET 0 0 0
					CHANNELS 3 Zrotation Yrotation Xrotation
					JOINT Neck1
					{
						OFFSET 0.09180 1.44629 0.19359
						CHANNELS 3 Zrotation Yrotation Xrotation
						JOINT Head
						{
							OFFSET 0.00887 1.40645 0.14750
							CHANNELS 3 Zrotation Yrotation Xrotation
							End Site
							{
								OFFSET -0.00669 1.50671 0.03707
							}
						}
					}
				}
				JOINT LeftShoulder
				{
					OFFSET 0 0 0
					CHANNELS 3 Zrotation Yrotation Xrotation
					JOINT LeftArm
					{
						OFFSET 2.17674 1.86763 -0.06520
						CHANNELS 3 Zrotation Yrotation Xrotation
						JOINT LeftForeArm
						{
							OFFSET 4.65776 -0.00000 0.00000
							CHANNELS 3 Zrotation Yrotation Xrotation
							JOINT LeftHand
							{
								OFFSET 3.55539 -0.00000 0.00000
								CHANNELS 3 Zrotation Yrotation Xrotation
								JOINT LeftFingerBase
								{
									OFFSET 0 0 0
									CHANNELS 3 Zrotation Yrotation Xrotation
									JOINT LeftHandIndex1
									{
										OFFSET 0.70726 -0.00000 0.00000
										CHANNELS 3 Zrotation Yrotation Xrotation
										End Site
										{
											OFFSET 0.57022 -0.00000 0.00000
										}
									}
								}
								JOINT LThumb
								{
									OFFSET 0 0 0
									CHANNELS 3 Zrotation Yrotation Xrotation
									End Site
									{
										OFFSET 0.57892 -0.00000 0.57892
									}
								}
							}
						}
					}
				}
				JOINT RightShoulder
				{
					OFFSET 0 0 0
					CHANNELS 3 Zrotation Yrotation Xrotation
					JOINT RightArm
					{
						OFFSET -2.80694 1.55459 -0.32496
						CHANNELS 3 Zrotation Yrotation Xrotation
						JOINT RightForeArm
						{
							OFFSET -4.71925 -0.00000 -0.00000
							CHANNELS 3 Zrotation Yrotation Xrotation
							JOINT RightHand
							{
								OFFSET -3.56990 -0.00000 0.00000
								CHANNELS 3 Zrotation Yrotation Xrotation
								JOINT RightFingerBase
								{
									OFFSET 0 0 0
									CHANNELS 3 Zrotation Yrotation Xrotation
									JOINT RightHandIndex1
									{
										OFFSET -0.50776 -0.00000 0.00000
										CHANNELS 3 Zrotation Yrotation Xrotation
										End Site
										{
											OFFSET -0.40937 -0.00000 0.00000
										}
									}
								}
								JOINT RThumb
								{
									OFFSET 0 0 0
									CHANNELS 3 Zrotation Yrotation Xrotation
									End Site
									{
										OFFSET -0.41562 -0.00000 0.41562
									}
								}
							}
						}
					}
				}
			}
		}
	}
}
MOTION
Frames: 9
Frame Time: .0083333
-1.0040 18.0857 20.9152 184.3850 9.6865 -154.6640 0.0000 0.0000 0.0000 -14.3340 -16.6390 -22.4417 0.7779 5.6312 15.7181 0.5229 4.5793 -16.1031 2.5826 -9.9866 -28.9335 0.0000 0.0000 0.0000 13.3717 15.6812 -35.5717 -2.6432 -10.0938 29.2809 -1.8510 -6.4526 -28.6904 -3.2127 11.0316 -32.3865 -9.5395 -3.8141 -22.2317 -0.8278 -2.1712 1.6926 3.7540 -1.6271 14.9204 0.6855 -10.6597 -4.3098 1.5130 -13.9878 24.9186 -0.7190 -5.9094 8.5252 0.0000 -0.0000 0.0000 -75.2181 -0.4852 18.6590 14.0565 -22.8154 -2.8500 -0.0000 -0.0000 1.0867 24.7615 -12.6591 -5.7720 -7.1250 0.0000 -0.0000 -1.7372 16.0907 1.1882 0.0000 -0.0000 0.0000 91.9917 -5.3716 15.9483 -20.7056 31.4831 -5.8955 0.0000 -0.0000 -5.1523 -18.1802 -51.5498 14.4231 7.1250 -0.0000 -0.0000 57.9909 -77.6679 -46.7751
-0.9870 18.0885 20.9050 184.6190 9.7297 -154.6440 0.0000 0.0000 0.0000 -13.9932 -16.6794 -22.4353 0.7975 5.7000 15.9164 0.5497 4.6216 -16.4563 2.3632 -9.5849 -27.6426 0.0000 0.0000 0.0000 12.8034 15.7187 -35.6586 -2.5847 -9.9904 28.9455 -1.7522 -6.9116 -28.3007 -3.1565 10.9441 -32.0916 -9.5720 -3.8074 -22.1783 -0.7719 -2.1718 1.6658 3.8393 -1.6314 14.8609 0.6581 -10.7110 -4.2872 1.4749 -14.0545 24.8650 -0.7305 -5.9540 8.5022 0.0000 -0.0000 0.0000 -75.1369 -0.3380 18.5894 14.1896 -23.0051 -2.9018 -0.0000 -0.0000 1.1065 24.7620 -12.6721 -5.7780 -7.1250 0.0000 -0.0000 -1.7376 16.0764 1.1891 0.0000 -0.0000 0.0000 91.8337 -5.4606 15.9032 -20.6174 31.3790 -5.8494 0.0000 -0.0000 -5.1012 -17.8023 -51.6921 14.1425 7.1250 -0.0000 -0.0000 58.8026 -77.5700 -47.4006
-0.9698 18.0896 20.8945 184.8130 9.7477 -154.6050 0.0000 0.0000 0.0000 -13.6917 -16.7199 -22.5110 0.8273 5.8030 16.2139 0.5793 4.5769 -16.7750 2.1899 -9.2509 -26.5834 0.0000 0.0000 0.0000 12.2163 15.5698 -35.8938 -2.5270 -9.8868 28.6110 -1.6082 -7.6295 -27.7639 -3.3837 11.2918 -33.2703 -9.6302 -3.8051 -22.2714 -0.7610 -2.1424 1.7092 3.8913 -1.6293 14.9670 0.6155 -10.7609 -4.2704 1.6500 -14.1629 24.8214 -0.6757 -5.9955 8.5033 0.0000 -0.0000 0.0000 -74.9428 -0.2231 18.7051 14.4135 -23.3228 -2.9899 -0.0000 -0.0000 0.8136 24.6311 -12.5219 -5.6770 -7.1250 0.0000 -0.0000 -1.8189 16.2544 1.2377 0.0000 -0.0000 0.0000 91.7878 -5.4113 15.7854 -20.5375 31.2845 -5.8079 0.0000 -0.0000 -5.0284 -17.7339 -51.6599 14.0808 7.1250 -0.0000 -0.0000 58.7005 -77.5300 -47.2700
-0.9516 18.0906 20.8808 185.0940 9.6651 -154.4590 0.0000 0.0000 0.0000 -13.2285 -16.8066 -22.6930 0.8568 5.9029 16.5030 0.6046 4.5474 -17.0476 2.1278 -9.1273 -26.1944 0.0000 0.0000 0.0000 11.7063 15.4520 -36.1555 -2.4797 -9.8008 28.3341 -1.5330 -7.9435 -27.4439 -3.3996 11.3154 -33.3510 -9.5672 -3.7974 -22.3691 -0.7242 -2.1445 1.6433 3.8971 -1.6231 14.9428 0.6192 -10.7746 -4.2560 1.7499 -14.1992 24.9061 -0.6484 -5.9944 8.5384 -0.0000 -0.0000 0.0000 -74.7275 0.0547 18.8330 14.6149 -23.6068 -3.0700 -0.0000 -0.0000 0.6051 24.1946 -12.4545 -5.5346 -7.1250 0.0000 -0.0000 -2.1171 16.3747 1.4353 -0.0000 -0.0000 0.0000 91.7402 -5.4905 15.6094 -20.4036 31.1255 -5.7385 0.0000 -0.0000 -5.0078 -17.8573 -51.1855 14.0916 7.1250 -0.0000 -0.0000 56.6321 -77.3905 -45.3005
-0.9342 18.0933 20.8671 185.5240 9.5525 -154.2640 0.0000 0.0000 0.0000 -12.5732 -16.9617 -22.8456 0.8798 5.9796 16.7251 0.6156 4.7358 -17.2998 2.2463 -9.3612 -26.9320 0.0000 0.0000 0.0000 11.3117 15.4871 -36.3131 -2.4095 -9.6715 27.9195 -1.5030 -8.0011 -27.2710 -3.4245 11.3524 -33.4778 -9.3332 -3.7642 -22.5740 -0.6365 -2.1586 1.6155 3.8562 -1.6187 15.0216 0.5515 -10.7650 -4.2180 1.8968 -14.2082 24.8958 -0.5896 -5.9898 8.5457 0.0000 -0.0000 0.0000 -74.5214 0.0339 18.9575 14.6407 -23.6432 -3.0804 -0.0000 -0.0000 0.5440 23.9427 -12.4698 -5.4766 -7.1250 0.0000 -0.0000 -2.2924 16.3848 1.5539 0.0000 -0.0000 0.0000 91.6478 -5.4616 15.4320 -20.2450 30.9364 -5.6568 0.0000 -0.0000 -4.9817 -17.8641 -50.7571 14.0153 7.1250 -0.0000 -0.0000 54.8716 -77.2086 -43.5813
-0.9160 18.0953 20.8543 185.8800 9.5121 -154.2420 0.0000 0.0000 0.0000 -12.0926 -17.0429 -22.7510 0.8906 6.0153 16.8288 0.6201 4.9714 -17.5128 2.3599 -9.5786 -27.6226 0.0000 0.0000 0.0000 10.8187 15.5478 -36.2962 -2.3193 -9.5016 27.3775 -1.4570 -8.0067 -26.9462 -3.3452 11.2340 -33.0732 -9.2215 -3.7285 -22.5825 -0.5509 -2.1599 1.6004 3.8917 -1.6166 15.0058 0.3562 -10.8078 -4.2977 1.9885 -14.2669 25.0962 -0.5468 -6.0119 8.6529 -0.0000 0.0000 0.0000 -74.3934 -0.1157 19.0008 14.5677 -23.5404 -3.0512 -0.0000 -0.0000 0.6918 24.1895 -12.4278 -5.5217 -7.1250 0.0000 -0.0000 -2.1191 16.4042 1.4354 -0.0000 0.0000 0.0000 91.5600 -5.4923 15.2434 -20.1149 30.7806 -5.5900 0.0000 -0.0000 -4.8718 -18.0180 -50.9112 14.1689 7.1250 -0.0000 -0.0000 55.4007 -77.3385 -44.1686
-0.8957 18.0953 20.8422 186.1350 9.5083 -154.3130 0.0000 0.0000 0.0000 -11.7573 -17.0327 -22.6583 0.9128 6.0877 17.0391 0.6343 5.0069 -17.6957 2.3614 -9.5815 -27.6319 0.0000 0.0000 0.0000 10.1892 15.6033 -36.2185 -2.2269 -9.3236 26.8128 -1.4000 -7.8384 -26.4183 -3.0192 10.7261 -31.3615 -9.1898 -3.6799 -22.5244 -0.5394 -2.1153 1.6390 3.9033 -1.5983 15.0106 0.3952 -10.8857 -4.5093 1.8948 -14.3713 25.3757 -0.6124 -6.0485 8.7788 0.0000 -0.0000 0.0000 -74.2038 -0.1956 19.0598 14.6035 -23.5908 -3.0655 -0.0000 -0.0000 0.8079 24.5283 -12.1457 -5.4842 -7.1250 0.0000 -0.0000 -1.8680 16.6749 1.2541 0.0000 -0.0000 0.0000 91.5835 -5.5411 15.0026 -20.0408 30.6915 -5.5522 0.0000 -0.0000 -4.6139 -18.2677 -51.2630 14.4390 7.1250 -0.0000 -0.0000 56.7171 -77.5885 -45.5686
-0.8750 18.0961 20.8314 186.4040 9.4905 -154.3050 0.0000 0.0000 0.0000 -11.3634 -17.0645 -22.7405 0.9530 6.2168 17.4147 0.6589 5.0063 -17.9657 2.3888 -9.6328 -27.7956 0.0000 0.0000 0.0000 9.5789 15.6304 -36.2020 -2.1275 -9.1267 26.1924 -1.2730 -8.0153 -25.5913 -3.0460 10.7691 -31.5052 -9.1292 -3.6451 -22.5171 -0.5557 -2.0844 1.6514 3.8611 -1.5795 15.0128 0.6112 -10.8976 -4.6361 1.8435 -14.4139 25.4607 -0.6745 -6.0476 8.8107 -0.0000 -0.0000 0.0000 -73.8992 -0.0720 19.2798 14.7796 -23.8381 -3.1363 -0.0000 -0.0000 0.5405 24.4971 -11.9467 -5.3884 -7.1250 0.0000 -0.0000 -1.8783 16.8946 1.2521 -0.0000 -0.0000 0.0000 91.6115 -5.6486 14.8927 -20.0356 30.6852 -5.5495 0.0000 -0.0000 -4.5540 -18.1442 -51.7009 14.4227 7.1250 -0.0000 -0.0000 58.6631 -77.7115 -47.4167
-0.8516 18.0974 20.8195 186.6610 9.4516 -154.3080 0.0000 0.0000 0.0000 -10.9828 -17.1074 -22.7665 0.9898 6.3320 17.7508 0.6810 5.0727 -18.2508 2.4168 -9.6850 -27.9624 0.0000 0.0000 0.0000 8.9784 15.6484 -36.1538 -2.0268 -8.9216 25.5505 -1.1037 -8.4460 -24.5834 -3.1969 11.0072 -32.3041 -9.1505 -3.6443 -22.5340 -0.5257 -2.0815 1.6861 3.9074 -1.5861 15.0665 0.7071 -10.8773 -4.6353 1.9610 -14.4303 25.3618 -0.6497 -6.0409 8.7791 0.0000 0.0000 0.0000 -73.6721 0.0254 19.4421 14.9526 -24.0800 -3.2066 -0.0000 -0.0000 0.2776 24.2698 -12.0258 -5.3667 -7.1250 0.0000 -0.0000 -2.0409 16.8323 1.3634 0.0000 0.0000 0.0000 91.5681 -5.6599 14.8209 -20.0305 30.6791 -5.5469 0.0000 -0.0000 -4.8250 -18.0950 -52.4009 14.5144 7.1250 -0.0000 -0.0000 61.7850 -77.9386 -50.4516
